<svg id="Layer_1" viewBox="0 0 512 512" xmlns="http://www.w3.org/2000/svg" data-name="Layer 1"><g fill-rule="evenodd"><path d="m255.993 496h-34.844v-73.172a169.415 169.415 0 0 1 -58.467-24.239l-51.757 51.755-49.276-49.277 51.751-51.755a169.459 169.459 0 0 1 -24.239-58.468h-73.168v-69.688h73.172a169.428 169.428 0 0 1 24.235-58.468l-51.751-51.756 49.276-49.277 51.757 51.756a169.447 169.447 0 0 1 58.467-24.24v-73.171h34.844v154.844a85.156 85.156 0 0 0 0 170.312z" fill="#4364e8"/><path d="m448.5 387.261a204.717 204.717 0 0 1 -157.663 73.895v-127.435a85.388 85.388 0 0 0 28.629-20.958z" fill="#4364e8"/><path d="m468.532 153.408a205.368 205.368 0 0 1 0 205.184l-131.622-75.992a85.578 85.578 0 0 0 0-53.2z" fill="#80a7f5"/><path d="m290.837 50.844a204.715 204.715 0 0 1 157.663 73.9l-129.034 74.5a85.4 85.4 0 0 0 -28.629-20.958z" fill="#bccffa"/><path d="m255.993 502h-34.844a6 6 0 0 1 -6-6v-68.376a175.342 175.342 0 0 1 -51.623-21.4l-48.358 48.358a6 6 0 0 1 -8.485 0l-49.277-49.273a6 6 0 0 1 0-8.484l48.358-48.358a175.393 175.393 0 0 1 -21.395-51.623h-68.376a6 6 0 0 1 -6-6v-69.688a6 6 0 0 1 6-6h68.376a175.342 175.342 0 0 1 21.4-51.623l-48.363-48.359a6 6 0 0 1 0-8.484l49.277-49.277a6 6 0 0 1 8.485 0l48.358 48.358a175.355 175.355 0 0 1 51.623-21.395v-68.376a6 6 0 0 1 6-6h34.844a6 6 0 0 1 6 6v154.844a6 6 0 0 1 -6 6 79.156 79.156 0 0 0 0 158.312 6 6 0 0 1 6 6v154.844a6 6 0 0 1 -6 6zm27.482-263.892c0-12.02-9.9-21.062-21.482-23.317v-9.191a6 6 0 1 0 -12 0v9.191c-11.586 2.255-21.482 11.3-21.482 23.317 0 32.883 42.964 15.863 42.964 35.784a10.588 10.588 0 0 1 -4.112 8.058c-9.628 8.019-26.852 2.612-26.852-8.058a6 6 0 0 0 -12 0c0 12.019 9.9 21.061 21.482 23.317v9.191a6 6 0 0 0 12 0v-9.191c11.586-2.256 21.482-11.3 21.482-23.317 0-32.883-42.964-15.864-42.964-35.784a10.585 10.585 0 0 1 4.112-8.058c9.628-8.019 26.852-2.613 26.852 8.058a6 6 0 1 0 12 0zm7.362-193.264a210.833 210.833 0 0 1 162.257 76.074 5.99 5.99 0 0 1 -1.713 9.055l-128.939 74.443a5.975 5.975 0 0 1 -7.429-1.2 79.838 79.838 0 0 0 -26.613-19.477 5.98 5.98 0 0 1 -3.544-5.461h-.019v-127.434a6 6 0 0 1 6-6zm84.416 30.7a198.131 198.131 0 0 0 -78.416-18.61v117.576a90.816 90.816 0 0 1 23.732 17.19l118.686-68.524a199.811 199.811 0 0 0 -64-47.633zm98.458 74.864a5.985 5.985 0 0 0 -8.179-2.18l-131.432 75.882a5.991 5.991 0 0 0 -2.887 7.141 79.529 79.529 0 0 1 0 49.5h.013a5.976 5.976 0 0 0 2.706 7.027l131.292 75.8a5.975 5.975 0 0 0 8.487-1.989 211.171 211.171 0 0 0 0-211.184zm9.534 53.971a197.944 197.944 0 0 0 -16.978-42.752l-122.267 70.592a91.5 91.5 0 0 1 0 47.574l122.267 70.59a199.639 199.639 0 0 0 16.983-146zm-30.412 187.014a210.792 210.792 0 0 1 -162 75.763 6 6 0 0 1 -6-6v-127.435a6 6 0 0 1 3.991-5.655 79.823 79.823 0 0 0 26.185-19.287 5.976 5.976 0 0 1 7.448-1.187v-.008l129.034 74.5a5.99 5.99 0 0 1 1.333 9.311zm-77.581 45.063a198.113 198.113 0 0 1 -78.415 18.61v-117.577a90.816 90.816 0 0 0 23.724-17.182l118.687 68.524a199.836 199.836 0 0 1 -64 47.625zm-148.103 53.544h22.844v-143.039a91.159 91.159 0 0 1 0-181.922v-143.039h-22.844v67.171h-.014a5.987 5.987 0 0 1 -4.767 5.86 163.424 163.424 0 0 0 -56.18 23.248 6 6 0 0 1 -7.748-.626l-47.515-47.513-40.792 40.792 47.513 47.514a6 6 0 0 1 .777 7.52 163.42 163.42 0 0 0 -23.308 55.985 6 6 0 0 1 -5.947 5.2h-67.175v57.688h67.172v.014a5.988 5.988 0 0 1 5.859 4.767 163.421 163.421 0 0 0 23.249 56.18 6 6 0 0 1 -.627 7.749l-47.513 47.518 40.792 40.793 47.515-47.513a6 6 0 0 1 7.52-.777 163.441 163.441 0 0 0 55.985 23.308 6 6 0 0 1 5.2 5.947z" fill="#0c0ca8"/></g></svg>